HIERARCHY
ROOT root
{
	OFFSET	0	13.1	24.9
	CHANNELS 6  Xposition Yposition Zposition Xrotation Yrotation Zrotation
	JOINT spine_1
	{
		OFFSET	0	9.99999	0
		CHANNELS 3  Xrotation Yrotation Zrotation
		JOINT spine_2
		{
			OFFSET	0	112	-10
			CHANNELS 3  Xrotation Yrotation Zrotation
			JOINT spine_3
			{
				OFFSET	0	206.5	19.3
				CHANNELS 3  Xrotation Yrotation Zrotation
				JOINT spine_4
				{
					OFFSET	0	110.4	14.6
					CHANNELS 3  Xrotation Yrotation Zrotation
					JOINT neck_1
					{
						OFFSET	0	71.8	-50.3
						CHANNELS 3  Xrotation Yrotation Zrotation
						JOINT neck_2
						{
							OFFSET	0	86.2	-25.8
							CHANNELS 3  Xrotation Yrotation Zrotation
							JOINT head_ee
							{
								OFFSET	0	179.8	-8.7
								CHANNELS 3  Xrotation Yrotation Zrotation
								End Site
								{
									OFFSET	1	0	0
								}
							}
						}
					}
					JOINT left_clavicle
					{
						OFFSET	-43.2	22.4	-70.8
						CHANNELS 3  Xrotation Yrotation Zrotation
						JOINT left_shoulder
						{
							OFFSET	-93.9	-5.79999	48.7
							CHANNELS 3  Xrotation Yrotation Zrotation
							JOINT left_elbow
							{
								OFFSET	-291.4	-30.8	15.2
								CHANNELS 3  Xrotation Yrotation Zrotation
								JOINT left_lowarm_twist
								{
									OFFSET	-110.7	-3.89999	13.6
									CHANNELS 3  Xrotation Yrotation Zrotation
									JOINT left_hand
									{
										OFFSET	-110.7	-3.89999	13.6
										CHANNELS 3  Xrotation Yrotation Zrotation
										JOINT left_ee
										{
											OFFSET	-80.8	-5.10001	12.1
											CHANNELS 3  Xrotation Yrotation Zrotation
											End Site
											{
												OFFSET	1	0	0
											}
										}
									}
								}
							}
						}
					}
					JOINT right_clavicle
					{
						OFFSET	43.2	22.4	-70.8
						CHANNELS 3  Xrotation Yrotation Zrotation
						JOINT right_shoulder
						{
							OFFSET	93.9	-5.79999	48.7
							CHANNELS 3  Xrotation Yrotation Zrotation
							JOINT right_elbow
							{
								OFFSET	291.4	-30.8	15.2
								CHANNELS 3  Xrotation Yrotation Zrotation
								JOINT right_lowarm_twist
								{
									OFFSET	110.7	-3.89999	13.6
									CHANNELS 3  Xrotation Yrotation Zrotation
									JOINT right_hand
									{
										OFFSET	110.7	-3.89999	13.6
										CHANNELS 3  Xrotation Yrotation Zrotation
										JOINT right_ee
										{
											OFFSET	80.8	-5.10001	12.1
											CHANNELS 3  Xrotation Yrotation Zrotation
											End Site
											{
												OFFSET	1	0	0
											}
										}
									}
								}
							}
						}
					}
				}
			}
		}
	}
	JOINT left_hip
	{
		OFFSET	-82.8	-127.5	0.300001
		CHANNELS 3  Xrotation Yrotation Zrotation
		JOINT left_knee
		{
			OFFSET	-28.2	-396.7	2.2
			CHANNELS 3  Xrotation Yrotation Zrotation
			JOINT left_ankle
			{
				OFFSET	-11.7	-411.3	35.4
				CHANNELS 3  Xrotation Yrotation Zrotation
				JOINT left_toes
				{
					OFFSET	0	-60	-88.6
					CHANNELS 3  Xrotation Yrotation Zrotation
					JOINT left_foot_ee
					{
						OFFSET	-22.5	-16.5	-42.2
						CHANNELS 3  Xrotation Yrotation Zrotation
						End Site
						{
							OFFSET	1	0	0
						}
					}
				}
			}
		}
	}
	JOINT right_hip
	{
		OFFSET	82.8	-127.5	0.300001
		CHANNELS 3  Xrotation Yrotation Zrotation
		JOINT right_knee
		{
			OFFSET	28.2	-396.7	2.2
			CHANNELS 3  Xrotation Yrotation Zrotation
			JOINT right_ankle
			{
				OFFSET	11.7	-411.3	35.4
				CHANNELS 3  Xrotation Yrotation Zrotation
				JOINT right_toes
				{
					OFFSET	0	-60	-88.6
					CHANNELS 3  Xrotation Yrotation Zrotation
					JOINT right_foot_ee
					{
						OFFSET	22.5	-16.5	-42.2
						CHANNELS 3  Xrotation Yrotation Zrotation
						End Site
						{
							OFFSET	1	0	0
						}
					}
				}
			}
		}
	}
}
MOTION
Frames: 8
Frame Time: 0.02
1372.05 701.618 -1475.22 -8.6132173968 52.5059489254 6.34378975113 2.97133 0.0531887 0.580965 2.97152 0.0161132 0.583172 2.97162 -0.0769416 0.578298 2.97116 0.0153539 0.583192 -11.5289 17.8298 -2.28735 -12.2261 35.2503 3.04351 -0.0 0.0 -0.0 -1.55364 8.18264 -1.77518 -2.20327 -10.4132 60.9287 3.76572 -61.789 2.25377 19.329 0.271363 -2.44251 3.2466 -12.6707 16.6944 -0.0 0.0 -0.0 9.34609 27.9266 -17.1924 -33.8602 25.5712 -66.811 0.216164 6.11217 -0.0115408 11.1908 -0.257891 1.40401 6.33033 -32.8469 -54.6511 0.0 0.0 0.0 -23.0072 27.062 20.9079 6.25022 -0.307358 -0.909102 1.91982 1.39234 -0.281679 36.4998 -0.0 -0.0 -0.0 0.0 -0.0 44.5266 21.2681 -18.5068 -10.9036 -0.293142 -1.64514 -22.7496 10.9618 -3.6329 0.770353 -0.0 -0.0 0.0 0.0 0.0 
1350.54562385 698.683 -1479.36234309 -8.64288067085 53.1902680861 6.21900388707 3.04144 0.0407064 0.544124 3.04161 0.00600043 0.545612 3.04161 -0.0802862 0.539706 3.0412 0.00595655 0.545612 -11.8961 17.766 -2.23853 -12.647 35.1243 3.20278 -0.0 0.0 -0.0 -1.45819 7.28049 -1.74166 -3.22185 -10.7983 61.4052 3.28914 -58.4474 1.84037 17.2891 0.281846 -2.18218 3.67681 -13.5761 19.2898 -0.0 0.0 -0.0 9.46616 27.6539 -17.4904 -34.4744 26.776 -66.5441 0.215511 6.09385 -0.0114714 10.2887 -0.24732 1.28926 6.42095 -33.0921 -55.5541 0.0 0.0 0.0 -23.7647 26.9655 21.0655 5.6271 -0.272275 -0.820005 -0.0996218 1.08751 0.0147025 36.7242 -0.0 -0.0 -0.0 0.0 -0.0 44.6639 21.638 -18.2886 -13.1583 -0.314402 -1.99042 -23.4684 10.376 -3.73399 0.937038 -0.0 -0.0 0.0 0.0 0.0 
1322.99287066 695.782 -1483.59351544 -7.89937015987 54.3829103453 5.36592112745 2.96746 0.0631357 0.543031 2.96762 0.0284538 0.545948 2.96785 -0.0588668 0.54351 2.96744 0.027708 0.545986 -11.9497 17.1432 -2.50174 -12.6518 34.1119 2.75481 -0.0 0.0 -0.0 -1.51584 7.97347 -1.73995 -4.47542 -11.2025 62.7038 3.05187 -56.5052 1.64028 15.1601 0.282897 -1.91027 4.08334 -14.0599 21.952 -0.0 0.0 -0.0 9.26313 26.7344 -17.1419 -34.6163 27.4746 -66.4505 0.209769 5.93266 -0.01087 8.73824 -0.224937 1.09248 6.4426 -33.1079 -55.7833 0.0 0.0 0.0 -24.6381 27.1865 20.4003 1.51137 -0.0651807 -0.222755 -0.084349 -0.221034 0.012488 38.6753 -0.0 -0.0 -0.0 0.0 -0.0 44.5445 22.1683 -17.9671 -17.9606 -0.314337 -2.72702 -22.931 9.73944 -3.635 1.34474 -0.0 -0.0 0.0 0.0 0.0 
1300.17034962 697.196 -1487.24374573 -8.29106924694 54.8116295779 5.56116785254 3.02297 0.133609 0.506031 3.02311 0.101138 0.513507 3.02398 0.0185727 0.523042 3.02361 0.100943 0.513545 -11.6855 16.6884 -2.12698 -12.3018 32.9948 2.86402 -0.0 0.0 -0.0 -1.3294 7.82061 -1.43146 -5.19107 -10.9387 63.5557 2.5528 -51.6554 1.23575 12.5961 0.270754 -1.58303 4.48331 -15.5754 24.0523 -0.0 0.0 -0.0 9.77867 23.8905 -18.5814 -34.9583 27.4387 -63.7509 0.192114 5.43647 -0.00912114 9.1601 -0.231554 1.14596 6.49238 -31.5897 -56.6756 0.0 0.0 0.0 -24.3175 27.0271 19.3469 -0.0530777 0.00218213 0.00785297 -7.94841 -6.01509 1.2213 39.9908 -0.0 -0.0 -0.0 0.0 -0.0 43.826 22.3652 -17.9757 -20.0302 -0.29528 -3.04397 -22.5533 2.83487 -3.46182 6.49935 -0.0 -0.0 0.0 0.0 0.0 
1249.1899744 703.017 -1494.52603558 -8.60066819554 57.4430655975 5.95370266628 2.89325 0.34083 0.698052 2.89347 0.295722 0.718324 2.89715 0.176621 0.756467 2.89647 0.293872 0.719083 -9.37396 16.7933 -2.20801 -9.67122 33.0638 2.04548 -0.0 0.0 -0.0 -1.44446 7.57127 -1.6735 -8.40835 -11.3515 65.6822 2.05098 -45.4493 0.859057 7.26147 0.198671 -0.905673 4.39464 -18.2553 21.9575 -0.0 0.0 -0.0 10.3077 22.8244 -19.8654 -33.5048 28.7738 -63.4046 0.270951 7.64479 -0.0181029 9.96842 -0.243133 1.24856 5.95332 -31.2902 -51.1548 0.0 0.0 0.0 -24.1289 27.6487 18.52 -3.28332 0.121192 0.489244 -14.4445 -6.4118 2.24201 40.1729 -0.0 -0.0 -0.0 0.0 -0.0 41.6676 23.1302 -17.3075 -24.2573 -0.22086 -3.68822 -17.7929 3.76059 -2.737 11.3424 -0.0 -0.0 0.0 0.0 0.0 
1249.53772072 703.017 -1496.62211029 -8.37848580841 56.4749228742 5.68866688993 2.89325 0.34083 0.698052 2.89347 0.295722 0.718324 2.89715 0.176621 0.756467 2.89647 0.293872 0.719083 -9.37396 16.7933 -2.20801 -9.67122 33.0638 2.04548 -0.0 0.0 -0.0 -1.44446 7.57127 -1.6735 -8.40835 -11.3515 65.6822 2.05098 -45.4493 0.859057 7.26147 0.198671 -0.905673 4.39464 -18.2553 21.9575 -0.0 0.0 -0.0 10.3077 22.8244 -19.8654 -33.5048 28.7738 -63.4046 0.270951 7.64479 -0.0181029 9.96842 -0.243133 1.24856 5.95332 -31.2902 -51.1548 0.0 0.0 0.0 -24.1289 27.6487 18.52 -3.28332 0.121192 0.489244 -14.4445 -6.4118 2.24201 40.1729 -0.0 -0.0 -0.0 0.0 -0.0 41.6676 23.1302 -17.3075 -24.2573 -0.22086 -3.68822 -17.7929 3.76059 -2.737 11.3424 -0.0 -0.0 0.0 0.0 0.0 
1202.10260739 708.22 -1500.80050518 -7.35202504143 58.3083660502 4.43169535525 2.54483 0.470275 0.785364 2.54508 0.419349 0.813695 2.55105 0.278095 0.87213 2.55023 0.412337 0.817271 -9.73122 16.8634 -1.07055 -10.0787 32.4694 3.28604 -0.0 0.0 -0.0 -1.17488 6.77059 -1.3077 -12.6445 -10.685 67.1714 1.63539 -39.0086 0.579294 6.61779 0.185718 -0.824468 4.19873 -24.6213 17.0343 -0.0 0.0 -0.0 11.086 21.8104 -21.7097 -32.0977 29.7043 -61.815 0.373858 10.4924 -0.0343278 6.67271 -0.186859 0.831392 5.58901 -32.2464 -47.7458 0.0 0.0 0.0 -21.7126 25.9264 16.2919 -11.6111 0.301277 1.7534 -20.6934 -7.84158 3.24586 40.1373 -0.0 -0.0 -0.0 0.0 -0.0 38.2698 23.031 -16.6846 -28.5182 -0.0979646 -4.33042 -10.037 2.63634 -1.52617 16.1579 -0.0 -0.0 0.0 0.0 0.0 
1173.17148661 712.526 -1504.39645302 -5.31036415949 58.3660383265 2.609406927 2.39783 0.635328 0.895788 2.3981 0.577042 0.934397 2.40758 0.410984 1.01841 2.40658 0.566658 0.94073 -8.06944 17.06 -2.3241 -8.1904 33.5172 1.56733 -0.0 0.0 -0.0 -1.15113 8.6235 -0.999273 -13.9741 -10.0791 67.9551 1.44396 -35.5739 0.463264 4.42349 0.134717 -0.548822 4.60687 -24.843 19.6632 -0.0 0.0 -0.0 11.1797 21.641 -21.9363 -30.9391 30.9397 -62.902 0.431471 12.065 -0.045597 8.47622 -0.220628 1.05929 5.77046 -32.3003 -49.3381 0.0 0.0 0.0 -20.7391 25.3524 15.6359 -13.4096 0.315929 2.02894 -23.1982 -7.52603 3.6333 39.439 -0.0 -0.0 -0.0 0.0 -0.0 34.1557 24.0642 -15.7093 -27.0766 -0.144891 -4.11416 -8.10659 3.8298 -1.23449 19.5716 -0.0 -0.0 0.0 0.0 0.0 
